<svg xmlns="http://www.w3.org/2000/svg" xmlns:xlink="http://www.w3.org/1999/xlink" viewBox="0 0 512 512" width="512" height="512" style="width: 100%; height: 100%; transform: translate3d(0,0,0);" preserveAspectRatio="xMidYMid meet"><defs><clipPath id="__lottie_element_2"><rect width="512" height="512" x="0" y="0"></rect></clipPath><clipPath id="__lottie_element_4"><path d="M0,0 L512,0 L512,512 L0,512z"></path></clipPath><linearGradient id="__lottie_element_111" spreadMethod="pad" gradientUnits="userSpaceOnUse" x1="-195.15899658203125" y1="4.27400016784668" x2="-50.04100036621094" y2="4.054999828338623"><stop offset="18%" stop-color="rgb(0,0,0)"></stop><stop offset="18%" stop-color="rgb(6,56,93)"></stop><stop offset="18%" stop-color="rgb(12,112,185)"></stop><stop offset="38%" stop-color="rgb(12,112,185)"></stop><stop offset="58%" stop-color="rgb(12,112,185)"></stop><stop offset="58%" stop-color="rgb(6,56,93)"></stop><stop offset="59%" stop-color="rgb(0,0,0)"></stop></linearGradient><linearGradient id="__lottie_element_115" spreadMethod="pad" gradientUnits="userSpaceOnUse" x1="-195.15899658203125" y1="4.27400016784668" x2="-50.04100036621094" y2="4.054999828338623"><stop offset="18%" stop-color="rgb(0,0,0)"></stop><stop offset="18%" stop-color="rgb(6,56,93)"></stop><stop offset="18%" stop-color="rgb(12,112,185)"></stop><stop offset="38%" stop-color="rgb(12,112,185)"></stop><stop offset="58%" stop-color="rgb(12,112,185)"></stop><stop offset="58%" stop-color="rgb(6,56,93)"></stop><stop offset="59%" stop-color="rgb(0,0,0)"></stop></linearGradient><clipPath id="__lottie_element_141"><path d="M0,0 L512,0 L512,512 L0,512z"></path></clipPath><linearGradient id="__lottie_element_248" spreadMethod="pad" gradientUnits="userSpaceOnUse"><stop></stop><stop></stop><stop></stop><stop></stop><stop></stop><stop></stop><stop></stop></linearGradient><linearGradient id="__lottie_element_252" spreadMethod="pad" gradientUnits="userSpaceOnUse"><stop></stop><stop></stop><stop></stop><stop></stop><stop></stop><stop></stop><stop></stop></linearGradient></defs><g clip-path="url(#__lottie_element_2)"><g clip-path="url(#__lottie_element_141)" style="display: none;"><g style="display: none;"><g><path></path><path stroke-linecap="round" stroke-linejoin="round" fill-opacity="0"></path></g></g><g style="display: none;"><g><path></path><path stroke-linecap="butt" stroke-linejoin="miter" fill-opacity="0" stroke-miterlimit="10"></path></g></g><g style="display: none;"><g><path stroke-linecap="round" stroke-linejoin="round" fill-opacity="0"></path></g></g><g style="display: none;"><g><path></path><path stroke-linecap="round" stroke-linejoin="round" fill-opacity="0"></path></g></g><g style="display: none;"><g><path stroke-linecap="round" stroke-linejoin="round" fill-opacity="0"></path></g></g><g style="display: none;"><g><path stroke-linecap="round" stroke-linejoin="round" fill-opacity="0"></path></g></g><g style="display: none;"><path stroke-linecap="butt" stroke-linejoin="miter" fill-opacity="0" stroke-miterlimit="4"></path><g><path></path></g></g><g style="display: none;"><g><path></path></g></g><g style="display: none;"><path stroke-linecap="butt" stroke-linejoin="miter" fill-opacity="0" stroke-miterlimit="4"></path><g><path></path></g></g><g style="display: none;"><g><path></path></g></g><g style="display: none;"><g><path stroke-linecap="round" stroke-linejoin="round" fill-opacity="0"></path></g></g><g style="display: none;"><g><path fill="url(#__lottie_element_252)"></path><path stroke-linecap="round" stroke-linejoin="round" fill-opacity="0"></path></g></g><g style="display: none;"><g><path fill="url(#__lottie_element_248)"></path><path stroke-linecap="round" stroke-linejoin="round" fill-opacity="0"></path></g></g><g style="display: none;"><g><path></path><path stroke-linecap="round" stroke-linejoin="round" fill-opacity="0"></path></g></g><g style="display: none;"><g><path stroke-linecap="round" stroke-linejoin="round" fill-opacity="0"></path></g></g><g style="display: none;"><g><path stroke-linecap="round" stroke-linejoin="round" fill-opacity="0"></path></g></g><g style="display: none;"><g><path></path><path stroke-linecap="round" stroke-linejoin="round" fill-opacity="0"></path></g></g><g style="display: none;"><g><path></path><path stroke-linecap="round" stroke-linejoin="round" fill-opacity="0"></path></g></g><g style="display: none;"><g><path stroke-linecap="round" stroke-linejoin="round" fill-opacity="0"></path></g></g><g style="display: none;"><g><path stroke-linecap="round" stroke-linejoin="round" fill-opacity="0"></path></g></g><g style="display: none;"><g><path stroke-linecap="round" stroke-linejoin="round" fill-opacity="0"></path></g></g><g style="display: none;"><g><path></path><path stroke-linecap="round" stroke-linejoin="round" fill-opacity="0"></path></g></g><g style="display: none;"><g><path></path><path stroke-linecap="round" stroke-linejoin="round" fill-opacity="0"></path></g></g><g style="display: none;"><g><path></path><path stroke-linecap="round" stroke-linejoin="round" fill-opacity="0"></path></g></g><g style="display: none;"><g><path></path><path stroke-linecap="butt" stroke-linejoin="miter" fill-opacity="0" stroke-miterlimit="4"></path></g></g><g style="display: none;"><g><path></path><path stroke-linecap="butt" stroke-linejoin="miter" fill-opacity="0" stroke-miterlimit="4"></path></g></g><g style="display: none;"><g><path></path><path stroke-linecap="butt" stroke-linejoin="miter" fill-opacity="0" stroke-miterlimit="4"></path></g></g><g style="display: none;"><g><path stroke-linecap="round" stroke-linejoin="round" fill-opacity="0"></path></g></g><g style="display: none;"><g><path></path><path stroke-linecap="butt" stroke-linejoin="miter" fill-opacity="0" stroke-miterlimit="10"></path></g><g><path></path></g></g><g style="display: none;"><g><path stroke-linecap="round" stroke-linejoin="round" fill-opacity="0"></path></g><g><path></path><path stroke-linecap="round" stroke-linejoin="round" fill-opacity="0"></path></g><g><path></path><path stroke-linecap="round" stroke-linejoin="round" fill-opacity="0"></path></g></g><g style="display: none;"><g><path></path><path stroke-linecap="round" stroke-linejoin="round" fill-opacity="0"></path></g></g><g style="display: none;"><g><path></path><path stroke-linecap="round" stroke-linejoin="round" fill-opacity="0"></path></g></g><g style="display: none;"><g><path></path><path stroke-linecap="round" stroke-linejoin="round" fill-opacity="0"></path></g></g><g style="display: none;"><g><path></path><path stroke-linecap="round" stroke-linejoin="round" fill-opacity="0"></path></g></g><g style="display: none;"><g><path></path><path stroke-linecap="round" stroke-linejoin="round" fill-opacity="0"></path></g></g><g style="display: none;"><g><path></path><path stroke-linecap="round" stroke-linejoin="round" fill-opacity="0"></path></g></g><g style="display: none;"><g><path></path><path stroke-linecap="round" stroke-linejoin="round" fill-opacity="0"></path></g></g><g style="display: none;"><g><path stroke-linecap="round" stroke-linejoin="round" fill-opacity="0"></path></g></g><g style="display: none;"><g><path></path><path stroke-linecap="round" stroke-linejoin="round" fill-opacity="0"></path></g></g><g style="display: none;"><g><path stroke-linecap="round" stroke-linejoin="round" fill-opacity="0"></path></g></g><g style="display: none;"><g><path></path><path stroke-linecap="round" stroke-linejoin="round" fill-opacity="0"></path></g></g><g style="display: none;"><g><path stroke-linecap="round" stroke-linejoin="round" fill-opacity="0"></path></g></g><g style="display: none;"><g><path stroke-linecap="round" stroke-linejoin="round" fill-opacity="0"></path></g></g></g><g clip-path="url(#__lottie_element_4)" style="display: block;" transform="matrix(1,0,0,1,0,0)" opacity="1"><g style="display: none;"><g><path></path><path stroke-linecap="round" stroke-linejoin="round" fill-opacity="0"></path></g></g><g style="display: block;" transform="matrix(1.100000023841858,0,0,1.100000023841858,252.99969482421875,384.0968933105469)" opacity="1"><g opacity="1" transform="matrix(1,0,0,1,0,0)"><path fill="rgb(255,213,39)" fill-opacity="1" d=" M-0.3970000147819519,103.67400360107422 C-69.06600189208984,103.67400360107422 -160.91600036621094,103.67400360107422 -160.81700134277344,37.25 C-150,-73.42900085449219 -62.12099838256836,-91.96800231933594 -3.7009999752044678,-91.96800231933594 C74.54900360107422,-91.96800231933594 149.66000366210938,-37.96699905395508 148.4499969482422,36.97200012207031 C147.25799560546875,110.82099914550781 68.62100219726562,103.67400360107422 -0.3970000147819519,103.67400360107422z"></path><path stroke-linecap="butt" stroke-linejoin="miter" fill-opacity="0" stroke-miterlimit="10" stroke="rgb(250,144,22)" stroke-opacity="1" stroke-width="9.091" d=" M-0.3970000147819519,103.67400360107422 C-69.06600189208984,103.67400360107422 -160.91600036621094,103.67400360107422 -160.81700134277344,37.25 C-150,-73.42900085449219 -62.12099838256836,-91.96800231933594 -3.7009999752044678,-91.96800231933594 C74.54900360107422,-91.96800231933594 149.66000366210938,-37.96699905395508 148.4499969482422,36.97200012207031 C147.25799560546875,110.82099914550781 68.62100219726562,103.67400360107422 -0.3970000147819519,103.67400360107422z"></path></g></g><g style="display: block;" transform="matrix(1.100000023841858,0,0,1.100000023841858,253.16139221191406,407.35858154296875)" opacity="1"><g opacity="1" transform="matrix(0.9776366353034973,-0.21030113101005554,0.21030113101005554,0.9776366353034973,0,0)"><path stroke-linecap="round" stroke-linejoin="round" fill-opacity="0" stroke="rgb(255,255,255)" stroke-opacity="1" stroke-width="8.869" d=" M114.31300354003906,-20.513999938964844 C117.90399932861328,-14.779000282287598 120.7760009765625,-7.295000076293945 122.53299713134766,1.1890000104904175"></path></g></g><g style="display: block;" transform="matrix(1.100000023841858,0,0,1.100000023841858,252.99969482421875,193.78810119628906)" opacity="1"><g opacity="1" transform="matrix(1,0,0,1,0,0)"><path fill="rgb(255,213,39)" fill-opacity="1" d=" M-110.43599700927734,130.60400390625 C-141.66700744628906,106.26000213623047 -157.3719940185547,68.63600158691406 -157.3719940185547,32.06100082397461 C-157.3719940185547,-45.637001037597656 -86.91500091552734,-122.12200164794922 0,-122.12200164794922 C86.91400146484375,-122.12200164794922 157.3719940185547,-45.637001037597656 157.3719940185547,32.06100082397461 C157.3719940185547,68.73500061035156 139.81500244140625,110.7239990234375 106.52799987792969,131.72799682617188"></path><path stroke-linecap="round" stroke-linejoin="round" fill-opacity="0" stroke="rgb(250,144,22)" stroke-opacity="1" stroke-width="9.091" d=" M-110.43599700927734,130.60400390625 C-141.66700744628906,106.26000213623047 -157.3719940185547,68.63600158691406 -157.3719940185547,32.06100082397461 C-157.3719940185547,-45.637001037597656 -86.91500091552734,-122.12200164794922 0,-122.12200164794922 C86.91400146484375,-122.12200164794922 157.3719940185547,-45.637001037597656 157.3719940185547,32.06100082397461 C157.3719940185547,68.73500061035156 139.81500244140625,110.7239990234375 106.52799987792969,131.72799682617188"></path></g></g><g style="display: block;" transform="matrix(1.100000023841858,0,0,1.100000023841858,127.44898986816406,214.62318420410156)" opacity="1"><g opacity="1" transform="matrix(1,0,0,1,0,0)"><path stroke-linecap="round" stroke-linejoin="round" fill-opacity="0" stroke="rgb(252,238,33)" stroke-opacity="1" stroke-width="8.869" d=" M-22.409000396728516,7.1579999923706055 C-22.496000289916992,8.920000076293945 -22.540000915527344,10.684000015258789 -22.540000915527344,12.447999954223633 C-22.540000915527344,29.2189998626709 -18.577999114990234,44.459999084472656 -11.416999816894531,57.880001068115234"></path></g></g><g style="display: block;" transform="matrix(1.100000023841858,0,0,1.100000023841858,255.19969177246094,220.97349548339844)" opacity="1"><g opacity="1" transform="matrix(1,0,0,1,0,0)"><path stroke-linecap="round" stroke-linejoin="round" fill-opacity="0" stroke="rgb(255,255,255)" stroke-opacity="1" stroke-width="8.869" d=" M116.77300262451172,67.47799682617188 C130.95899963378906,48.362998962402344 134.5030059814453,25.288000106811523 134.0800018310547,5.730000019073486"></path></g></g><g style="display: block;" transform="matrix(0.9710234999656677,-0.05088918283581734,0.052966292947530746,1.0106569528579712,150.7502899169922,346.8049621582031)" opacity="1"><path stroke-linecap="butt" stroke-linejoin="miter" fill-opacity="0" stroke-miterlimit="4" stroke="rgb(0,0,0)" stroke-opacity="1" stroke-width="0" d=" M145.42599487304688,-138 C154.11500549316406,-138 161.53599548339844,-131.5800018310547 164.48800659179688,-122.53099822998047 C165.36900329589844,-119.83200073242188 165.8520050048828,-116.89800262451172 165.8520050048828,-113.83100128173828 C165.8520050048828,-110.85800170898438 165.3979949951172,-108.01000213623047 164.5679931640625,-105.37899780273438 C161.6719970703125,-96.1989974975586 154.19400024414062,-89.66200256347656 145.42599487304688,-89.66200256347656 C137.08999633789062,-89.66200256347656 129.9199981689453,-95.56999969482422 126.74500274658203,-104.04100036621094 C125.62300109863281,-107.03399658203125 125,-110.34600067138672 125,-113.83100128173828 C125,-116.7040023803711 125.42400360107422,-119.45899963378906 126.20099639892578,-122.01499938964844 C129.03500366210938,-131.3350067138672 136.572998046875,-138 145.42599487304688,-138z"></path><g opacity="1" transform="matrix(1,0,0,1,0,0)"><path fill="rgb(0,0,0)" fill-opacity="1" d=" M145.42599487304688,-138 C154.11500549316406,-138 161.53599548339844,-131.5800018310547 164.48800659179688,-122.53099822998047 C165.36900329589844,-119.83200073242188 165.8520050048828,-116.89800262451172 165.8520050048828,-113.83100128173828 C165.8520050048828,-110.85800170898438 165.3979949951172,-108.01000213623047 164.5679931640625,-105.37899780273438 C161.6719970703125,-96.1989974975586 154.19400024414062,-89.66200256347656 145.42599487304688,-89.66200256347656 C137.08999633789062,-89.66200256347656 129.9199981689453,-95.56999969482422 126.74500274658203,-104.04100036621094 C125.62300109863281,-107.03399658203125 125,-110.34600067138672 125,-113.83100128173828 C125,-116.7040023803711 125.42400360107422,-119.45899963378906 126.20099639892578,-122.01499938964844 C129.03500366210938,-131.3350067138672 136.572998046875,-138 145.42599487304688,-138z"></path></g></g><g style="display: block;" transform="matrix(0.7768187522888184,-0.04071134701371193,0.04237303510308266,0.8085256814956665,290.3292236328125,213.21011352539062)" opacity="1"><g opacity="1" transform="matrix(1,0,0,1,0,0)"><path fill="rgb(255,255,255)" fill-opacity="1" d=" M-6.406000137329102,3.2860000133514404 C-4.247000217437744,7.494999885559082 0.3709999918937683,9.435999870300293 3.9089999198913574,7.620999813079834 C7.447000026702881,5.806000232696533 8.5649995803833,0.9229999780654907 6.406000137329102,-3.2860000133514404 C4.247000217437744,-7.494999885559082 -0.3709999918937683,-9.435999870300293 -3.9089999198913574,-7.620999813079834 C-7.447000026702881,-5.806000232696533 -8.5649995803833,-0.9229999780654907 -6.406000137329102,3.2860000133514404z"></path></g></g><g style="display: block;" transform="matrix(0.7768187522888184,-0.04071134701371193,0.052966292947530746,1.0106569528579712,299.429931640625,343.5318908691406)" opacity="1"><path stroke-linecap="butt" stroke-linejoin="miter" fill-opacity="0" stroke-miterlimit="4" stroke="rgb(0,0,0)" stroke-opacity="1" stroke-width="0" d=" M145.42599487304688,-138 C154.11500549316406,-138 161.53599548339844,-131.5800018310547 164.48800659179688,-122.53099822998047 C165.36900329589844,-119.83200073242188 165.8520050048828,-116.89800262451172 165.8520050048828,-113.83100128173828 C165.8520050048828,-110.85800170898438 165.3979949951172,-108.01000213623047 164.5679931640625,-105.37899780273438 C161.6719970703125,-96.1989974975586 154.19400024414062,-89.66200256347656 145.42599487304688,-89.66200256347656 C137.08999633789062,-89.66200256347656 129.9199981689453,-95.56999969482422 126.74500274658203,-104.04100036621094 C125.62300109863281,-107.03399658203125 125,-110.34600067138672 125,-113.83100128173828 C125,-116.7040023803711 125.42400360107422,-119.45899963378906 126.20099639892578,-122.01499938964844 C129.03500366210938,-131.3350067138672 136.572998046875,-138 145.42599487304688,-138z"></path><g opacity="1" transform="matrix(1,0,0,1,0,0)"><path fill="rgb(0,0,0)" fill-opacity="1" d=" M145.42599487304688,-138 C154.11500549316406,-138 161.53599548339844,-131.5800018310547 164.48800659179688,-122.53099822998047 C165.36900329589844,-119.83200073242188 165.8520050048828,-116.89800262451172 165.8520050048828,-113.83100128173828 C165.8520050048828,-110.85800170898438 165.3979949951172,-108.01000213623047 164.5679931640625,-105.37899780273438 C161.6719970703125,-96.1989974975586 154.19400024414062,-89.66200256347656 145.42599487304688,-89.66200256347656 C137.08999633789062,-89.66200256347656 129.9199981689453,-95.56999969482422 126.74500274658203,-104.04100036621094 C125.62300109863281,-107.03399658203125 125,-110.34600067138672 125,-113.83100128173828 C125,-116.7040023803711 125.42400360107422,-119.45899963378906 126.20099639892578,-122.01499938964844 C129.03500366210938,-131.3350067138672 136.572998046875,-138 145.42599487304688,-138z"></path></g></g><g style="display: block;" transform="matrix(0.6214550137519836,-0.03256908059120178,0.04237303510308266,0.8085256814956665,409.7731018066406,211.46923828125)" opacity="1"><g opacity="1" transform="matrix(1,0,0,1,0,0)"><path fill="rgb(255,255,255)" fill-opacity="1" d=" M-6.406000137329102,3.2860000133514404 C-4.247000217437744,7.494999885559082 0.3709999918937683,9.435999870300293 3.9089999198913574,7.620999813079834 C7.447000026702881,5.806000232696533 8.5649995803833,0.9229999780654907 6.406000137329102,-3.2860000133514404 C4.247000217437744,-7.494999885559082 -0.3709999918937683,-9.435999870300293 -3.9089999198913574,-7.620999813079834 C-7.447000026702881,-5.806000232696533 -8.5649995803833,-0.9229999780654907 -6.406000137329102,3.2860000133514404z"></path></g></g><g style="display: block;" transform="matrix(0.8739210963249207,-0.04580026492476463,0.0476696603000164,0.9095912575721741,350.5174255371094,206.8097686767578)" opacity="1"><g opacity="1" transform="matrix(1,0,0,1,0,0)"><path stroke-linecap="round" stroke-linejoin="round" fill-opacity="0" stroke="rgb(0,0,0)" stroke-opacity="1" stroke-width="15" d=" M-12.923999786376953,13.383000373840332 C-7.861999988555908,-2.1440000534057617 16.284000396728516,-2.4240000247955322 21.641000747680664,13.965999603271484"></path></g></g><g style="display: block;" transform="matrix(0.8739210963249207,-0.04580026492476463,0.0476696603000164,0.9095912575721741,274.93011474609375,232.23898315429688)" opacity="1"><g opacity="1" transform="matrix(1,0,0,1,0,0)"><path fill="url(#__lottie_element_115)" fill-opacity="0.8" d=" M-66.83799743652344,-38.31999969482422 C-66.83799743652344,-38.31999969482422 79.84200286865234,-30.658000946044922 79.84200286865234,-30.658000946044922 C79.84200286865234,-30.658000946044922 59.54999923706055,13.795000076293945 59.54999923706055,13.795000076293945 C57.0620002746582,22.70400047302246 48.24800109863281,28.88800048828125 38.0629997253418,28.871000289916992 C38.0629997253418,28.871000289916992 -25.402000427246094,26.07900047302246 -25.402000427246094,26.07900047302246 C-34.8650016784668,26.062999725341797 -43.40299987792969,20.683000564575195 -46.76300048828125,12.618000030517578 C-46.76300048828125,12.618000030517578 -66.83799743652344,-38.31999969482422 -66.83799743652344,-38.31999969482422z"></path><path stroke-linecap="round" stroke-linejoin="round" fill-opacity="0" stroke="rgb(0,0,0)" stroke-opacity="1" stroke-width="10.927940805728232" d=" M-66.83799743652344,-38.31999969482422 C-66.83799743652344,-38.31999969482422 79.84200286865234,-30.658000946044922 79.84200286865234,-30.658000946044922 C79.84200286865234,-30.658000946044922 59.54999923706055,13.795000076293945 59.54999923706055,13.795000076293945 C57.0620002746582,22.70400047302246 48.24800109863281,28.88800048828125 38.0629997253418,28.871000289916992 C38.0629997253418,28.871000289916992 -25.402000427246094,26.07900047302246 -25.402000427246094,26.07900047302246 C-34.8650016784668,26.062999725341797 -43.40299987792969,20.683000564575195 -46.76300048828125,12.618000030517578 C-46.76300048828125,12.618000030517578 -66.83799743652344,-38.31999969482422 -66.83799743652344,-38.31999969482422z"></path></g></g><g style="display: block;" transform="matrix(0.6991368532180786,-0.03664020821452141,0.0476696603000164,0.9095912575721741,415.39642333984375,225.13011169433594)" opacity="1"><g opacity="1" transform="matrix(1,0,0,1,0,0)"><path fill="url(#__lottie_element_111)" fill-opacity="0.8" d=" M66.86799621582031,-25.41200065612793 C66.86799621582031,-25.41200065612793 -67.23500061035156,-31.0310001373291 -67.23500061035156,-31.0310001373291 C-67.23500061035156,-31.0310001373291 -52.665000915527344,15.781000137329102 -52.665000915527344,15.781000137329102 C-49.888999938964844,24.698999404907227 -40.875999450683594,30.913999557495117 -30.69099998474121,30.930999755859375 C-30.69099998474121,30.930999755859375 27.499000549316406,33.45899963378906 27.499000549316406,33.45899963378906 C36.96200180053711,33.474998474121094 45.327999114990234,28.124000549316406 48.426998138427734,20.06999969482422 C48.426998138427734,20.06999969482422 66.86799621582031,-25.41200065612793 66.86799621582031,-25.41200065612793z"></path><path stroke-linecap="round" stroke-linejoin="round" fill-opacity="0" stroke="rgb(0,0,0)" stroke-opacity="1" stroke-width="10.417" d=" M66.86799621582031,-25.41200065612793 C66.86799621582031,-25.41200065612793 -67.23500061035156,-31.0310001373291 -67.23500061035156,-31.0310001373291 C-67.23500061035156,-31.0310001373291 -52.665000915527344,15.781000137329102 -52.665000915527344,15.781000137329102 C-49.888999938964844,24.698999404907227 -40.875999450683594,30.913999557495117 -30.69099998474121,30.930999755859375 C-30.69099998474121,30.930999755859375 27.499000549316406,33.45899963378906 27.499000549316406,33.45899963378906 C36.96200180053711,33.474998474121094 45.327999114990234,28.124000549316406 48.426998138427734,20.06999969482422 C48.426998138427734,20.06999969482422 66.86799621582031,-25.41200065612793 66.86799621582031,-25.41200065612793z"></path></g></g><g style="display: block;" transform="matrix(0.9710234999656677,-0.05088918283581734,0.052966292947530746,1.0106569528579712,359.4068908691406,267.92919921875)" opacity="1"><g opacity="1" transform="matrix(1,0,0,1,0,0)"><path fill="rgb(255,93,31)" fill-opacity="1" d=" M-60.80500030517578,27.729999542236328 C-47.422000885009766,27.312999725341797 -18.516000747680664,28.176000595092773 6.642000198364258,27.645999908447266 C33.96099853515625,27.06999969482422 44.70600128173828,27.054000854492188 61.75699996948242,27.55900001525879 C72.79000091552734,27.88599967956543 80.5009994506836,18.832000732421875 68.86299896240234,14.696000099182129 C87.35099792480469,11.390999794006348 84.88899993896484,-1.75 59.60200119018555,-5.026000022888184 C42.52899932861328,-7.23799991607666 24.270999908447266,-52.904998779296875 -0.9110000133514404,-51.42599868774414 C-26.075000762939453,-49.948001861572266 -20.415000915527344,-7.603000164031982 -62.14699935913086,-2.8289999961853027 C-71.39299774169922,-1.7710000276565552 -75.6449966430664,8.517000198364258 -74.00800323486328,16.8700008392334 C-72.81999969482422,22.93000030517578 -68.53299713134766,27.97100067138672 -60.80500030517578,27.729999542236328z"></path><path stroke-linecap="round" stroke-linejoin="round" fill-opacity="0" stroke="rgb(207,53,2)" stroke-opacity="1" stroke-width="8.869" d=" M-60.80500030517578,27.729999542236328 C-47.422000885009766,27.312999725341797 -18.516000747680664,28.176000595092773 6.642000198364258,27.645999908447266 C33.96099853515625,27.06999969482422 44.70600128173828,27.054000854492188 61.75699996948242,27.55900001525879 C72.79000091552734,27.88599967956543 80.5009994506836,18.832000732421875 68.86299896240234,14.696000099182129 C87.35099792480469,11.390999794006348 84.88899993896484,-1.75 59.60200119018555,-5.026000022888184 C42.52899932861328,-7.23799991607666 24.270999908447266,-52.904998779296875 -0.9110000133514404,-51.42599868774414 C-26.075000762939453,-49.948001861572266 -20.415000915527344,-7.603000164031982 -62.14699935913086,-2.8289999961853027 C-71.39299774169922,-1.7710000276565552 -75.6449966430664,8.517000198364258 -74.00800323486328,16.8700008392334 C-72.81999969482422,22.93000030517578 -68.53299713134766,27.97100067138672 -60.80500030517578,27.729999542236328z"></path></g></g><g style="display: block;" transform="matrix(0.9710234999656677,-0.05088918283581734,0.052966292947530746,1.0106569528579712,358.5341796875,287.9892272949219)" opacity="1"><g opacity="1" transform="matrix(1,0,0,1,0,0)"><path stroke-linecap="round" stroke-linejoin="round" fill-opacity="0" stroke="rgb(125,9,9)" stroke-opacity="1" stroke-width="8.869" d=" M71.30999755859375,-5.78000020980835 C43.7599983215332,-6.447999954223633 -5.508999824523926,-6.985000133514404 -47.4900016784668,-6.763999938964844"></path></g></g><g style="display: block;" transform="matrix(1.0444674491882324,0.17225150763988495,-0.1611655354499817,1.0861492156982422,384.3712158203125,255.09368896484375)" opacity="1"><g opacity="1" transform="matrix(1,0,0,1,24.70599937438965,22.10700035095215)"><path stroke-linecap="round" stroke-linejoin="round" fill-opacity="0" stroke="rgb(255,180,132)" stroke-opacity="1" stroke-width="8" d=" M-22.201000213623047,-24.677000045776367 C-30.16699981689453,-32.32600021362305 -37.73500061035156,-40.25299835205078 -45.709999084472656,-43.77000045776367"></path></g></g><g style="display: block;" transform="matrix(0.9993898272514343,0.03489946201443672,-0.03489946201443672,0.9993898272514343,247.04513549804688,135.80453491210938)" opacity="1"><g opacity="1" transform="matrix(1,0,0,1,0,0)"><path fill="rgb(136,126,104)" fill-opacity="1" d=" M244.9739990234375,13.1850004196167 C244.9739990234375,22.183000564575195 139.44200134277344,35.7599983215332 9.26200008392334,35.7599983215332 C-120.91799926757812,35.7599983215332 -226.44900512695312,22.183000564575195 -226.44900512695312,13.1850004196167 C-226.44900512695312,4.186999797821045 -120.91799926757812,3.1740000247955322 9.26200008392334,3.1740000247955322 C139.44200134277344,3.1740000247955322 244.9739990234375,4.186999797821045 244.9739990234375,13.1850004196167z"></path><path stroke-linecap="round" stroke-linejoin="round" fill-opacity="0" stroke="rgb(62,57,45)" stroke-opacity="1" stroke-width="10" d=" M244.9739990234375,13.1850004196167 C244.9739990234375,22.183000564575195 139.44200134277344,35.7599983215332 9.26200008392334,35.7599983215332 C-120.91799926757812,35.7599983215332 -226.44900512695312,22.183000564575195 -226.44900512695312,13.1850004196167 C-226.44900512695312,4.186999797821045 -120.91799926757812,3.1740000247955322 9.26200008392334,3.1740000247955322 C139.44200134277344,3.1740000247955322 244.9739990234375,4.186999797821045 244.9739990234375,13.1850004196167z"></path></g></g><g style="display: block;" transform="matrix(0.9993898272514343,0.03489946201443672,-0.03489946201443672,0.9993898272514343,250.1969451904297,65.46276092529297)" opacity="1"><g opacity="1" transform="matrix(1,0,0,1,0,0)"><path fill="rgb(136,126,104)" fill-opacity="1" d=" M-147.34500122070312,83.23100280761719 C-136.81500244140625,45.483001708984375 -117.46199798583984,-33.79199981689453 -72.61299896240234,-33.79199981689453 C7.98199987411499,-33.79199981689453 15.112000465393066,-28.18199920654297 41.5099983215332,-28.18199920654297 C82.96299743652344,-28.18199920654297 83.98400115966797,-41.07400131225586 105.38500213623047,-33.63999938964844 C126.78600311279297,-26.20599937438965 161.7729949951172,48.17499923706055 167.88699340820312,85.30400085449219"></path><path stroke-linecap="round" stroke-linejoin="round" fill-opacity="0" stroke="rgb(62,57,45)" stroke-opacity="1" stroke-width="10" d=" M-147.34500122070312,83.23100280761719 C-136.81500244140625,45.483001708984375 -117.46199798583984,-33.79199981689453 -72.61299896240234,-33.79199981689453 C7.98199987411499,-33.79199981689453 15.112000465393066,-28.18199920654297 41.5099983215332,-28.18199920654297 C82.96299743652344,-28.18199920654297 83.98400115966797,-41.07400131225586 105.38500213623047,-33.63999938964844 C126.78600311279297,-26.20599937438965 161.7729949951172,48.17499923706055 167.88699340820312,85.30400085449219"></path></g></g><g style="display: block;" transform="matrix(1.099328875541687,0.0383894108235836,-0.0383894108235836,1.099328875541687,243.13128662109375,336.04974365234375)" opacity="0.33"><g opacity="1" transform="matrix(0.9776366353034973,-0.21030113101005554,0.21030113101005554,0.9776366353034973,0,0)"><path stroke-linecap="round" stroke-linejoin="round" fill-opacity="0" stroke="rgb(197,187,167)" stroke-opacity="1" stroke-width="20" d=" M147.90199279785156,-229.81300354003906 C152.83200073242188,-217.06300354003906 164.01300048828125,-169.76199340820312 165.06500244140625,-146.88299560546875"></path></g></g><g style="display: block;" transform="matrix(1.099328875541687,0.0383894108235836,-0.0383894108235836,1.099328875541687,243.13128662109375,336.04974365234375)" opacity="0.1"><g opacity="1" transform="matrix(0.9776366353034973,-0.21030113101005554,0.21030113101005554,0.9776366353034973,0,0)"><path stroke-linecap="round" stroke-linejoin="round" fill-opacity="0" stroke="rgb(62,57,45)" stroke-opacity="1" stroke-width="30" d=" M-6.763000011444092,-260.7869873046875 C1.2569999694824219,-225.7050018310547 -13.467000007629395,-201.9010009765625 -53.617000579833984,-194.968994140625"></path></g></g><g style="display: block;" transform="matrix(0.9993898272514343,0.03489946201443672,-0.03489946201443672,0.9993898272514343,250.1969451904297,65.46276092529297)" opacity="0.5"><g opacity="1" transform="matrix(1,0,0,1,0,0)"><path stroke-linecap="round" stroke-linejoin="round" fill-opacity="0" stroke="rgb(62,57,45)" stroke-opacity="1" stroke-width="10" d=" M-72.61299896240234,-33.79199981689453 C24.788000106811523,-34.452999114990234 45.67100143432617,-14.034000396728516 72.06600189208984,-14.432000160217285 C97.10299682617188,-14.8100004196167 98.12100219726562,-30.033000946044922 98.25499725341797,-35.604000091552734"></path></g></g><g style="display: block;" transform="matrix(0.9195327758789062,-0.3930108845233917,0.3930108845233917,0.9195327758789062,191.9989013671875,259.6661071777344)" opacity="1"><g opacity="1" transform="matrix(1,0,0,1,0,0)"><path fill="rgb(255,250,202)" fill-opacity="1" d=" M75.91100311279297,-45.428001403808594 C44,-59.52399826049805 -1.184000015258789,-75.96299743652344 -38.04499816894531,-93.52899932861328 C-52.976200103759766,-51.15480041503906 -72.55220031738281,6.123199939727783 -81.04039764404297,31.73259925842285 C-59.549400329589844,44.41360092163086 0.23680000007152557,72.03559875488281 33.07979965209961,84.34459686279297 C40.43539810180664,65.83460235595703 64.6167984008789,-14.619400024414062 75.91100311279297,-45.428001403808594z"></path><path stroke-linecap="round" stroke-linejoin="round" fill-opacity="0" stroke="rgb(188,168,113)" stroke-opacity="1" stroke-width="10" d=" M75.91100311279297,-45.428001403808594 C44,-59.52399826049805 -1.184000015258789,-75.96299743652344 -38.04499816894531,-93.52899932861328 C-52.976200103759766,-51.15480041503906 -72.55220031738281,6.123199939727783 -81.04039764404297,31.73259925842285 C-59.549400329589844,44.41360092163086 0.23680000007152557,72.03559875488281 33.07979965209961,84.34459686279297 C40.43539810180664,65.83460235595703 64.6167984008789,-14.619400024414062 75.91100311279297,-45.428001403808594z"></path></g></g><g style="display: block;" transform="matrix(0.9195327758789062,-0.3930108845233917,0.3930108845233917,0.9195327758789062,191.9989013671875,275.478271484375)" opacity="1"><g opacity="1" transform="matrix(1,0,0,1,0,0)"><path fill="rgb(53,48,33)" fill-opacity="1" d=" M-74.84757232666016,16.259571075439453 C-71.50435638427734,18.20857048034668 -67.8882827758789,20.262784957885742 -64.04199981689453,22.388500213623047 C-47.780643463134766,31.37714195251465 -27.40235710144043,41.64835739135742 -6.079714298248291,50.65064239501953 C0.382999986410141,53.37900161743164 6.933428764343262,55.99128723144531 13.481642723083496,58.415428161621094 C23.995786666870117,25.823715209960938 -42.51185607910156,-35.284427642822266 -74.84757232666016,16.259571075439453z"></path><path stroke-linecap="round" stroke-linejoin="round" fill-opacity="0" stroke="rgb(53,47,32)" stroke-opacity="1" stroke-width="10" d=" M-74.84757232666016,16.259571075439453 C-71.50435638427734,18.20857048034668 -67.8882827758789,20.262784957885742 -64.04199981689453,22.388500213623047 C-47.780643463134766,31.37714195251465 -27.40235710144043,41.64835739135742 -6.079714298248291,50.65064239501953 C0.382999986410141,53.37900161743164 6.933428764343262,55.99128723144531 13.481642723083496,58.415428161621094 C23.995786666870117,25.823715209960938 -42.51185607910156,-35.284427642822266 -74.84757232666016,16.259571075439453z"></path></g></g><g style="display: block;" transform="matrix(0.9999989867210388,0,0,0.9999989867210388,258.6530456542969,213.5921173095703)" opacity="1"><g opacity="1" transform="matrix(1,0,0,1,0,0)"><path fill="rgb(255,139,0)" fill-opacity="1" d=" M-81.25150299072266,96.28724670410156 C-81.25150299072266,96.28724670410156 -89.73049926757812,105.97025299072266 -89.73049926757812,105.97025299072266 C-89.73049926757812,105.97025299072266 -97.81075286865234,98.74275207519531 -97.81075286865234,98.74275207519531 C-97.81075286865234,98.74275207519531 -106.85900115966797,98.86199951171875 -106.85900115966797,98.86199951171875 C-106.85900115966797,98.86199951171875 -110.25975036621094,95.40025329589844 -114.34349822998047,96.92874908447266 C-116.81950378417969,97.85549926757812 -119.40299987792969,99.66850280761719 -121.63375091552734,102.0677490234375 C-123.80599975585938,104.40374755859375 -125.64450073242188,107.29624938964844 -126.72474670410156,110.46575164794922 C-128.87925720214844,116.78925323486328 -68.14974975585938,122.37725067138672 -45.353248596191406,118.58174896240234 C-34.2452507019043,116.73274993896484 -34.97850036621094,109.7457504272461 -37.66600036621094,105.97699737548828 C-39.748748779296875,103.05599975585938 -43.61724853515625,104.49774932861328 -43.18000030517578,104.53250122070312 C-42.1515007019043,104.61499786376953 -46.35824966430664,101.4384994506836 -51.57400131225586,102.77024841308594 C-57.318748474121094,104.23674774169922 -63.6192512512207,108.68824768066406 -63.6192512512207,108.68824768066406 C-63.6192512512207,108.68824768066406 -71.39350128173828,100.63825225830078 -71.39350128173828,100.63825225830078 C-71.39350128173828,100.63825225830078 -76.56849670410156,101.541748046875 -76.56849670410156,101.541748046875 C-76.56849670410156,101.541748046875 -81.25150299072266,96.28724670410156 -81.25150299072266,96.28724670410156z"></path><path stroke-linecap="round" stroke-linejoin="round" fill-opacity="0" stroke="rgb(255,140,0)" stroke-opacity="1" stroke-width="5" d=" M-81.25150299072266,96.28724670410156 C-81.25150299072266,96.28724670410156 -89.73049926757812,105.97025299072266 -89.73049926757812,105.97025299072266 C-89.73049926757812,105.97025299072266 -97.81075286865234,98.74275207519531 -97.81075286865234,98.74275207519531 C-97.81075286865234,98.74275207519531 -106.85900115966797,98.86199951171875 -106.85900115966797,98.86199951171875 C-106.85900115966797,98.86199951171875 -110.25975036621094,95.40025329589844 -114.34349822998047,96.92874908447266 C-116.81950378417969,97.85549926757812 -119.40299987792969,99.66850280761719 -121.63375091552734,102.0677490234375 C-123.80599975585938,104.40374755859375 -125.64450073242188,107.29624938964844 -126.72474670410156,110.46575164794922 C-128.87925720214844,116.78925323486328 -68.14974975585938,122.37725067138672 -45.353248596191406,118.58174896240234 C-34.2452507019043,116.73274993896484 -34.97850036621094,109.7457504272461 -37.66600036621094,105.97699737548828 C-39.748748779296875,103.05599975585938 -43.61724853515625,104.49774932861328 -43.18000030517578,104.53250122070312 C-42.1515007019043,104.61499786376953 -46.35824966430664,101.4384994506836 -51.57400131225586,102.77024841308594 C-57.318748474121094,104.23674774169922 -63.6192512512207,108.68824768066406 -63.6192512512207,108.68824768066406 C-63.6192512512207,108.68824768066406 -71.39350128173828,100.63825225830078 -71.39350128173828,100.63825225830078 C-71.39350128173828,100.63825225830078 -76.56849670410156,101.541748046875 -76.56849670410156,101.541748046875 C-76.56849670410156,101.541748046875 -81.25150299072266,96.28724670410156 -81.25150299072266,96.28724670410156z"></path></g></g><g style="display: block;" transform="matrix(0.5065036416053772,0,0,0.5065036416053772,215.73573303222656,272.9029541015625)" opacity="1"><g opacity="1" transform="matrix(1,0,0,1,0,0)"><path fill="rgb(255,140,0)" fill-opacity="1" d=" M-86.5,64 C-100,85 -97.5,102.5 -89.5,116.5 C-81.5,130.5 -69.5,86 -86.5,64z"></path><path stroke-linecap="butt" stroke-linejoin="miter" fill-opacity="0" stroke-miterlimit="4" stroke="rgb(255,140,0)" stroke-opacity="1" stroke-width="16" d=" M-86.5,64 C-100,85 -97.5,102.5 -89.5,116.5 C-81.5,130.5 -69.5,86 -86.5,64z"></path></g></g><g style="display: block;" transform="matrix(0.5945084095001221,-0.051364555954933167,0.051364555954933167,0.5945084095001221,202.26795959472656,253.94830322265625)" opacity="1"><g opacity="1" transform="matrix(1,0,0,1,0,0)"><path fill="rgb(255,140,0)" fill-opacity="1" d=" M-86.5,64 C-100,85 -97.5,102.5 -89.5,116.5 C-81.5,130.5 -69.5,86 -86.5,64z"></path><path stroke-linecap="butt" stroke-linejoin="miter" fill-opacity="0" stroke-miterlimit="4" stroke="rgb(255,140,0)" stroke-opacity="1" stroke-width="16" d=" M-86.5,64 C-100,85 -97.5,102.5 -89.5,116.5 C-81.5,130.5 -69.5,86 -86.5,64z"></path></g></g><g style="display: block;" transform="matrix(0.5941777229309082,0.027230851352214813,-0.027230851352214813,0.5941777229309082,248.1055450439453,268.9588317871094)" opacity="1"><g opacity="1" transform="matrix(1,0,0,1,0,0)"><path fill="rgb(255,140,0)" fill-opacity="1" d=" M-86.5,64 C-100,85 -97.5,102.5 -89.5,116.5 C-81.5,130.5 -69.5,86 -86.5,64z"></path><path stroke-linecap="butt" stroke-linejoin="miter" fill-opacity="0" stroke-miterlimit="4" stroke="rgb(255,140,0)" stroke-opacity="1" stroke-width="16" d=" M-86.5,64 C-100,85 -97.5,102.5 -89.5,116.5 C-81.5,130.5 -69.5,86 -86.5,64z"></path></g></g><g style="display: none;"><g><path stroke-linecap="round" stroke-linejoin="round" fill-opacity="0"></path></g></g><g style="display: block;" transform="matrix(-0.75,0,0,0.75,259.1782531738281,376.0169982910156)" opacity="1"><g opacity="1" transform="matrix(1,0,0,1,0,0)"><path fill="rgb(255,255,255)" fill-opacity="1" d=" M123.9280014038086,-49.70000076293945 C113.69599914550781,-42.05799865722656 106.80699920654297,-27.788999557495117 106.80699920654297,-11.434000015258789 C106.80699920654297,4.921000003814697 113.69599914550781,19.190000534057617 123.9280014038086,26.832000732421875 C134.16000366210938,19.190000534057617 141.04800415039062,4.921000003814697 141.04800415039062,-11.434000015258789 C141.04800415039062,-27.788999557495117 134.16000366210938,-42.05799865722656 123.9280014038086,-49.70000076293945z"></path><path stroke-linecap="butt" stroke-linejoin="miter" fill-opacity="0" stroke-miterlimit="10" stroke="rgb(167,246,255)" stroke-opacity="1" stroke-width="10" d=" M123.9280014038086,-49.70000076293945 C113.69599914550781,-42.05799865722656 106.80699920654297,-27.788999557495117 106.80699920654297,-11.434000015258789 C106.80699920654297,4.921000003814697 113.69599914550781,19.190000534057617 123.9280014038086,26.832000732421875 C134.16000366210938,19.190000534057617 141.04800415039062,4.921000003814697 141.04800415039062,-11.434000015258789 C141.04800415039062,-27.788999557495117 134.16000366210938,-42.05799865722656 123.9280014038086,-49.70000076293945z"></path></g><g opacity="1" transform="matrix(1,0,0,1,0,0)"><path fill="rgb(167,246,255)" fill-opacity="1" d=" M123.9280014038086,-16.05500030517578 C118.19400024414062,-11.772000312805176 114.33399963378906,-3.7760000228881836 114.33399963378906,5.388999938964844 C114.33399963378906,14.553999900817871 118.19400024414062,22.548999786376953 123.9280014038086,26.832000732421875 C129.66200256347656,22.548999786376953 133.52200317382812,14.553999900817871 133.52200317382812,5.388999938964844 C133.52200317382812,-3.7760000228881836 129.66200256347656,-11.772000312805176 123.9280014038086,-16.05500030517578z"></path></g></g><g style="display: block;" transform="matrix(-0.75,0,0,0.75,179.30325317382812,411.2662658691406)" opacity="1"><g opacity="1" transform="matrix(1,0,0,1,0,0)"><path stroke-linecap="round" stroke-linejoin="round" fill-opacity="0" stroke="rgb(0,0,0)" stroke-opacity="1" stroke-width="10" d=" M52.0359992980957,-1.8339999914169312 C52.0359992980957,3.4679999351501465 47.737998962402344,7.764999866485596 42.43600082397461,7.764999866485596 C37.13399887084961,7.764999866485596 32.83700180053711,3.4679999351501465 32.83700180053711,-1.8339999914169312 C32.83700180053711,-7.136000156402588 37.13399887084961,-11.434000015258789 42.43600082397461,-11.434000015258789 C47.737998962402344,-11.434000015258789 52.0359992980957,-7.136000156402588 52.0359992980957,-1.8339999914169312z"></path></g><g opacity="1" transform="matrix(1,0,0,1,0,0)"><path fill="rgb(204,203,203)" fill-opacity="1" d=" M34.025001525878906,12.95199966430664 C34.025001525878906,12.95199966430664 0,12.95199966430664 0,12.95199966430664 C0,12.95199966430664 0,-16.621000289916992 0,-16.621000289916992 C0,-16.621000289916992 34.025001525878906,-16.621000289916992 34.025001525878906,-16.621000289916992 C34.025001525878906,-16.621000289916992 34.025001525878906,12.95199966430664 34.025001525878906,12.95199966430664z"></path><path stroke-linecap="round" stroke-linejoin="round" fill-opacity="0" stroke="rgb(128,128,128)" stroke-opacity="1" stroke-width="10" d=" M34.025001525878906,12.95199966430664 C34.025001525878906,12.95199966430664 0,12.95199966430664 0,12.95199966430664 C0,12.95199966430664 0,-16.621000289916992 0,-16.621000289916992 C0,-16.621000289916992 34.025001525878906,-16.621000289916992 34.025001525878906,-16.621000289916992 C34.025001525878906,-16.621000289916992 34.025001525878906,12.95199966430664 34.025001525878906,12.95199966430664z"></path></g><g opacity="1" transform="matrix(1,0,0,1,0,0)"><path fill="rgb(128,128,128)" fill-opacity="1" d=" M11.244000434875488,-6.763000011444092 C11.244000434875488,-6.763000011444092 11.244000434875488,-0.25699999928474426 11.244000434875488,-0.25699999928474426"></path><path stroke-linecap="round" stroke-linejoin="round" fill-opacity="0" stroke="rgb(255,255,255)" stroke-opacity="1" stroke-width="10" d=" M11.244000434875488,-6.763000011444092 C11.244000434875488,-6.763000011444092 11.244000434875488,-0.25699999928474426 11.244000434875488,-0.25699999928474426"></path></g></g><g style="display: block;" transform="matrix(-0.75,0,0,0.75,163.95899963378906,440.56500244140625)" opacity="1"><g opacity="1" transform="matrix(1,0,0,1,0,0)"><path fill="rgb(128,128,128)" fill-opacity="1" d=" M-32.46200180053711,-26.014999389648438 C-32.46200180053711,-26.014999389648438 -32.46200180053711,8.199000358581543 -32.46200180053711,8.199000358581543 C-32.46200180053711,18.038000106811523 -24.486000061035156,26.014999389648438 -14.647000312805176,26.014999389648438 C-14.647000312805176,26.014999389648438 14.647000312805176,26.014999389648438 14.647000312805176,26.014999389648438 C24.486000061035156,26.014999389648438 32.46200180053711,18.038000106811523 32.46200180053711,8.199000358581543 C32.46200180053711,8.199000358581543 32.46200180053711,-26.014999389648438 32.46200180053711,-26.014999389648438 C32.46200180053711,-26.014999389648438 -32.46200180053711,-26.014999389648438 -32.46200180053711,-26.014999389648438z"></path><path stroke-linecap="round" stroke-linejoin="round" fill-opacity="0" stroke="rgb(78,77,77)" stroke-opacity="1" stroke-width="10" d=" M-32.46200180053711,-26.014999389648438 C-32.46200180053711,-26.014999389648438 -32.46200180053711,8.199000358581543 -32.46200180053711,8.199000358581543 C-32.46200180053711,18.038000106811523 -24.486000061035156,26.014999389648438 -14.647000312805176,26.014999389648438 C-14.647000312805176,26.014999389648438 14.647000312805176,26.014999389648438 14.647000312805176,26.014999389648438 C24.486000061035156,26.014999389648438 32.46200180053711,18.038000106811523 32.46200180053711,8.199000358581543 C32.46200180053711,8.199000358581543 32.46200180053711,-26.014999389648438 32.46200180053711,-26.014999389648438 C32.46200180053711,-26.014999389648438 -32.46200180053711,-26.014999389648438 -32.46200180053711,-26.014999389648438z"></path></g></g><g style="display: block;" transform="matrix(-0.75,0,0,0.75,177.77325439453125,437.31524658203125)" opacity="1"><g opacity="1" transform="matrix(1,0,0,1,0,0)"><path fill="rgb(128,128,128)" fill-opacity="1" d=" M0,-10.505999565124512 C0,-10.505999565124512 0,10.505999565124512 0,10.505999565124512"></path><path stroke-linecap="round" stroke-linejoin="round" fill-opacity="0" stroke="rgb(255,255,255)" stroke-opacity="1" stroke-width="10" d=" M0,-10.505999565124512 C0,-10.505999565124512 0,10.505999565124512 0,10.505999565124512"></path></g></g><g style="display: block;" transform="matrix(0.43810227513313293,-0.6087416410446167,-0.6087416410446167,-0.43810227513313293,212.5428009033203,408.5008850097656)" opacity="1"><g opacity="1" transform="matrix(1,0,0,1,0,0)"><path fill="rgb(78,77,77)" fill-opacity="1" d=" M-32.46200180053711,1.3619999885559082 C-32.46200180053711,1.3619999885559082 -32.46200180053711,16.452999114990234 -32.46200180053711,16.452999114990234 C-32.46200180053711,16.452999114990234 -32.46799850463867,22.954999923706055 0.004000000189989805,22.58300018310547 C32.47600173950195,22.211000442504883 32.46200180053711,16.452999114990234 32.46200180053711,16.452999114990234 C32.46200180053711,16.452999114990234 32.46200180053711,1.3619999885559082 32.46200180053711,1.3619999885559082 C32.46200180053711,-8.47700023651123 -32.46200180053711,-8.47700023651123 -32.46200180053711,1.3619999885559082z"></path><path stroke-linecap="round" stroke-linejoin="round" fill-opacity="0" stroke="rgb(78,77,77)" stroke-opacity="1" stroke-width="10" d=" M-32.46200180053711,1.3619999885559082 C-32.46200180053711,1.3619999885559082 -32.46200180053711,16.452999114990234 -32.46200180053711,16.452999114990234 C-32.46200180053711,16.452999114990234 -32.46799850463867,22.954999923706055 0.004000000189989805,22.58300018310547 C32.47600173950195,22.211000442504883 32.46200180053711,16.452999114990234 32.46200180053711,16.452999114990234 C32.46200180053711,16.452999114990234 32.46200180053711,1.3619999885559082 32.46200180053711,1.3619999885559082 C32.46200180053711,-8.47700023651123 -32.46200180053711,-8.47700023651123 -32.46200180053711,1.3619999885559082z"></path></g></g><g style="display: block;" transform="matrix(0.43810227513313293,-0.6087416410446167,-0.6087416410446167,-0.43810227513313293,212.5428009033203,408.5008850097656)" opacity="1"><g opacity="1" transform="matrix(1,0,0,1,0,0)"><path fill="rgb(128,128,128)" fill-opacity="1" d=" M14.647000312805176,-16.452999114990234 C14.647000312805176,-16.452999114990234 -14.647000312805176,-16.452999114990234 -14.647000312805176,-16.452999114990234 C-24.486000061035156,-16.452999114990234 -32.46200180053711,-8.47700023651123 -32.46200180053711,1.3619999885559082 C-32.46200180053711,1.3619999885559082 -32.46200180053711,16.452999114990234 -32.46200180053711,16.452999114990234 C-32.46200180053711,16.452999114990234 -33.31399917602539,10.435999870300293 -0.8420000076293945,10.064000129699707 C31.6299991607666,9.692000389099121 32.46200180053711,16.452999114990234 32.46200180053711,16.452999114990234 C32.46200180053711,16.452999114990234 32.46200180053711,1.3619999885559082 32.46200180053711,1.3619999885559082 C32.46200180053711,-8.47700023651123 24.486000061035156,-16.452999114990234 14.647000312805176,-16.452999114990234z"></path><path stroke-linecap="round" stroke-linejoin="round" fill-opacity="0" stroke="rgb(78,77,77)" stroke-opacity="1" stroke-width="10" d=" M14.647000312805176,-16.452999114990234 C14.647000312805176,-16.452999114990234 -14.647000312805176,-16.452999114990234 -14.647000312805176,-16.452999114990234 C-24.486000061035156,-16.452999114990234 -32.46200180053711,-8.47700023651123 -32.46200180053711,1.3619999885559082 C-32.46200180053711,1.3619999885559082 -32.46200180053711,16.452999114990234 -32.46200180053711,16.452999114990234 C-32.46200180053711,16.452999114990234 -33.31399917602539,10.435999870300293 -0.8420000076293945,10.064000129699707 C31.6299991607666,9.692000389099121 32.46200180053711,16.452999114990234 32.46200180053711,16.452999114990234 C32.46200180053711,16.452999114990234 32.46200180053711,1.3619999885559082 32.46200180053711,1.3619999885559082 C32.46200180053711,-8.47700023651123 24.486000061035156,-16.452999114990234 14.647000312805176,-16.452999114990234z"></path></g></g><g style="display: block;" transform="matrix(0.43810227513313293,-0.6087416410446167,-0.6087416410446167,-0.43810227513313293,204.69862365722656,419.8753967285156)" opacity="1"><g opacity="1" transform="matrix(1,0,0,1,0,0)"><path fill="rgb(128,128,128)" fill-opacity="1" d=" M36.85200119018555,-4.175000190734863 C36.85200119018555,-4.175000190734863 36.85200119018555,-0.43700000643730164 36.85200119018555,-0.43700000643730164"></path><path stroke-linecap="round" stroke-linejoin="round" fill-opacity="0" stroke="rgb(255,255,255)" stroke-opacity="1" stroke-width="10" d=" M36.85200119018555,-4.175000190734863 C36.85200119018555,-4.175000190734863 36.85200119018555,-0.43700000643730164 36.85200119018555,-0.43700000643730164"></path></g></g><g style="display: none;"><g><path></path><path stroke-linecap="round" stroke-linejoin="round" fill-opacity="0"></path></g></g><g style="display: block;" transform="matrix(0.46475157141685486,1.0114651918411255,-0.9874128699302673,0.45369988679885864,71.28306579589844,429.15576171875)" opacity="1"><g opacity="1" transform="matrix(1,0,0,1,0,0)"><path fill="rgb(254,216,32)" fill-opacity="1" d=" M-9.798999786376953,-53.73899841308594 C3.7990000247955322,-52.152000427246094 25.381999969482422,-61.85900115966797 36.486000061035156,-70.93599700927734 C64.23500061035156,-93.62200164794922 70.73200225830078,-74.27999877929688 63.53799819946289,-55.6349983215332 C61.33599853515625,-49.926998138427734 48.35900115966797,-19.9950008392334 26.44700050354004,-12.817999839782715"></path><path stroke-linecap="round" stroke-linejoin="round" fill-opacity="0" stroke="rgb(250,144,22)" stroke-opacity="1" stroke-width="9.091" d=" M-9.798999786376953,-53.73899841308594 C3.7990000247955322,-52.152000427246094 25.381999969482422,-61.85900115966797 36.486000061035156,-70.93599700927734 C64.23500061035156,-93.62200164794922 70.73200225830078,-74.27999877929688 63.53799819946289,-55.6349983215332 C61.33599853515625,-49.926998138427734 48.35900115966797,-19.9950008392334 26.44700050354004,-12.817999839782715"></path></g></g><g style="display: block;" transform="matrix(0.7189238667488098,-0.818175733089447,0.8216347098350525,0.7480033040046692,83.97937774658203,550.4610595703125)" opacity="1"><g opacity="1" transform="matrix(0.9776366353034973,-0.21030113101005554,0.21030113101005554,0.9776366353034973,0,0)"><path stroke-linecap="round" stroke-linejoin="round" fill-opacity="0" stroke="rgb(252,238,33)" stroke-opacity="1" stroke-width="8.869" d=" M96.64099884033203,-30.69700050354004 C96.37699890136719,-16.808000564575195 97.23300170898438,-6.854000091552734 103.1510009765625,4.936999797821045"></path></g></g><g style="display: block;" transform="matrix(-1.0406266450881958,0.3004401624202728,0.30976852774620056,1.07293701171875,289.6352233886719,339.71697998046875)" opacity="1"><g opacity="1" transform="matrix(1,0,0,1,0,0)"><path fill="rgb(254,216,32)" fill-opacity="1" d=" M-26.299999237060547,5.980999946594238 C-18.479000091552734,-15.944999694824219 12.850000381469727,-36.00199890136719 35.63800048828125,-36.573001861572266 C62.60599899291992,-37.249000549316406 47.70899963378906,-18.42099952697754 34.1349983215332,-8.42300033569336 C18.94099998474121,2.7679998874664307 16.05900001525879,26.10300064086914 18.82699966430664,41.6870002746582"></path><path stroke-linecap="round" stroke-linejoin="round" fill-opacity="0" stroke="rgb(250,144,22)" stroke-opacity="1" stroke-width="9.091" d=" M-26.299999237060547,5.980999946594238 C-18.479000091552734,-15.944999694824219 12.850000381469727,-36.00199890136719 35.63800048828125,-36.573001861572266 C62.60599899291992,-37.249000549316406 47.70899963378906,-18.42099952697754 34.1349983215332,-8.42300033569336 C18.94099998474121,2.7679998874664307 16.05900001525879,26.10300064086914 18.82699966430664,41.6870002746582"></path></g></g><g style="display: block;" transform="matrix(1.0602141618728638,0.29316380620002747,-0.26464971899986267,1.0680924654006958,152.02719116210938,330.1708679199219)" opacity="1"><g opacity="1" transform="matrix(0.9776366353034973,-0.21030113101005554,0.21030113101005554,0.9776366353034973,0,0)"><path stroke-linecap="round" stroke-linejoin="round" fill-opacity="0" stroke="rgb(255,255,255)" stroke-opacity="1" stroke-width="8.869" d=" M93.21900177001953,-11.88700008392334 C112.41999816894531,-12.812999725341797 126.1259994506836,-7.21999979019165 136.5279998779297,2.187999963760376"></path></g></g><g style="display: none;"><g><path></path><path stroke-linecap="round" stroke-linejoin="round" fill-opacity="0"></path></g></g><g style="display: none;"><g><path stroke-linecap="round" stroke-linejoin="round" fill-opacity="0"></path></g></g><g style="display: none;"><g><path stroke-linecap="round" stroke-linejoin="round" fill-opacity="0"></path></g></g></g></g></svg>