<?xml version="1.0" encoding="UTF-8"?>
<svg viewBox="0 0 1000 1000" version="1.1" xmlns="http://www.w3.org/2000/svg" xmlns:xlink="http://www.w3.org/1999/xlink">
    <!-- Generator: Sketch 53.2 (72643) - https://sketchapp.com -->
    <title>Artboard</title>
    <desc>Created with Sketch.</desc>
	<style>
        #the-text {
		font-size: 50px;
		fill: white;
		font-family: Segoe UI;
		font-weight: 500;
		user-select: none
        }
		
		g {
		animation: fall 1s linear infinite;
		}
		
        @keyframes fall {
		0% {
		transform: translateY(0%);
		}
		100% {
		transform: translateY(25%);
		}
        }
	</style>
	<defs>
        <mask id="maskOval">
			<g>
			<text x="700" y="0" id="the-text" fill="#000000">1</text>
			<text x="650" y="0" id="the-text" fill="#000000">1</text>
			<text x="600" y="0" id="the-text" fill="#000000">1</text>
			<text x="550" y="0" id="the-text" fill="#000000">1</text>
            <text x="500" y="0" id="the-text" fill="#000000">0</text>
			<text x="450" y="0" id="the-text" fill="#000000">0</text>
			<text x="400" y="0" id="the-text" fill="#000000">1</text>
			<text x="350" y="0" id="the-text" fill="#000000">0</text>
			<text x="300" y="0" id="the-text" fill="#000000">0</text>
			<text x="250" y="0" id="the-text" fill="#000000">1</text>
			<text x="200" y="0" id="the-text" fill="#000000">0</text>
			
			<text x="700" y="50" id="the-text" fill="#000000">1</text>
			<text x="650" y="50" id="the-text" fill="#000000">1</text>
			<text x="600" y="50" id="the-text" fill="#000000">1</text>
			<text x="550" y="50" id="the-text" fill="#000000">1</text>
            <text x="500" y="50" id="the-text" fill="#000000">1</text>
			<text x="450" y="50" id="the-text" fill="#000000">0</text>
			<text x="400" y="50" id="the-text" fill="#000000">1</text>
			<text x="350" y="50" id="the-text" fill="#000000">1</text>
			<text x="300" y="50" id="the-text" fill="#000000">0</text>
			<text x="250" y="50" id="the-text" fill="#000000">1</text>
			<text x="200" y="50" id="the-text" fill="#000000">0</text>
			
			<text x="700" y="100" id="the-text" fill="#000000">1</text>
			<text x="650" y="100" id="the-text" fill="#000000">1</text>
			<text x="600" y="100" id="the-text" fill="#000000">1</text>
			<text x="550" y="100" id="the-text" fill="#000000">1</text>
            <text x="500" y="100" id="the-text" fill="#000000">0</text>
			<text x="450" y="100" id="the-text" fill="#000000">0</text>
			<text x="400" y="100" id="the-text" fill="#000000">1</text>
			<text x="350" y="100" id="the-text" fill="#000000">0</text>
			<text x="300" y="100" id="the-text" fill="#000000">1</text>
			<text x="250" y="100" id="the-text" fill="#000000">0</text>
			<text x="200" y="100" id="the-text" fill="#000000">1</text>
		
			<text x="700" y="150" id="the-text" fill="#000000">1</text>
			<text x="650" y="150" id="the-text" fill="#000000">0</text>
			<text x="600" y="150" id="the-text" fill="#000000">1</text>
			<text x="550" y="150" id="the-text" fill="#000000">0</text>
            <text x="500" y="150" id="the-text" fill="#000000">1</text>
			<text x="450" y="150" id="the-text" fill="#000000">1</text>
			<text x="400" y="150" id="the-text" fill="#000000">0</text>
			<text x="350" y="150" id="the-text" fill="#000000">1</text>
			<text x="300" y="150" id="the-text" fill="#000000">0</text>
			<text x="250" y="150" id="the-text" fill="#000000">1</text>
			<text x="200" y="150" id="the-text" fill="#000000">1</text>
		
			<text x="700" y="200" id="the-text" fill="#000000">1</text>
			<text x="650" y="200" id="the-text" fill="#000000">1</text>
			<text x="600" y="200" id="the-text" fill="#000000">1</text>
			<text x="550" y="200" id="the-text" fill="#000000">0</text>
            <text x="500" y="200" id="the-text" fill="#000000">1</text>
			<text x="450" y="200" id="the-text" fill="#000000">1</text>
			<text x="400" y="200" id="the-text" fill="#000000">0</text>
			<text x="350" y="200" id="the-text" fill="#000000">0</text>
			<text x="300" y="200" id="the-text" fill="#000000">1</text>
			<text x="250" y="200" id="the-text" fill="#000000">1</text>
			<text x="200" y="200" id="the-text" fill="#000000">1</text>
		
			<text x="700" y="250" id="the-text" fill="#000000">1</text>
			<text x="650" y="250" id="the-text" fill="#000000">1</text>
			<text x="600" y="250" id="the-text" fill="#000000">0</text>
			<text x="550" y="250" id="the-text" fill="#000000">1</text>
            <text x="500" y="250" id="the-text" fill="#000000">0</text>
			<text x="450" y="250" id="the-text" fill="#000000">0</text>
			<text x="400" y="250" id="the-text" fill="#000000">0</text>
			<text x="350" y="250" id="the-text" fill="#000000">1</text>
			<text x="300" y="250" id="the-text" fill="#000000">0</text>
			<text x="250" y="250" id="the-text" fill="#000000">1</text>
			<text x="200" y="250" id="the-text" fill="#000000">0</text>
		
			<text x="700" y="300" id="the-text" fill="#000000">1</text>
			<text x="650" y="300" id="the-text" fill="#000000">1</text>
			<text x="600" y="300" id="the-text" fill="#000000">1</text>
			<text x="550" y="300" id="the-text" fill="#000000">0</text>
            <text x="500" y="300" id="the-text" fill="#000000">0</text>
			<text x="450" y="300" id="the-text" fill="#000000">1</text>
			<text x="400" y="300" id="the-text" fill="#000000">0</text>
			<text x="350" y="300" id="the-text" fill="#000000">0</text>
			<text x="300" y="300" id="the-text" fill="#000000">0</text>
			<text x="250" y="300" id="the-text" fill="#000000">1</text>
			<text x="200" y="300" id="the-text" fill="#000000">0</text>
			
			<text x="700" y="350" id="the-text" fill="#000000">1</text>
			<text x="650" y="350" id="the-text" fill="#000000">0</text>
			<text x="600" y="350" id="the-text" fill="#000000">1</text>
			<text x="550" y="350" id="the-text" fill="#000000">0</text>
            <text x="500" y="350" id="the-text" fill="#000000">1</text>
			<text x="450" y="350" id="the-text" fill="#000000">0</text>
			<text x="400" y="350" id="the-text" fill="#000000">1</text>
			<text x="350" y="350" id="the-text" fill="#000000">0</text>
			<text x="300" y="350" id="the-text" fill="#000000">1</text>
			<text x="250" y="350" id="the-text" fill="#000000">0</text>
			<text x="200" y="350" id="the-text" fill="#000000">0</text>
			
			<text x="700" y="400" id="the-text" fill="#000000">1</text>
			<text x="650" y="400" id="the-text" fill="#000000">1</text>
			<text x="600" y="400" id="the-text" fill="#000000">0</text>
			<text x="550" y="400" id="the-text" fill="#000000">1</text>
            <text x="500" y="400" id="the-text" fill="#000000">1</text>
			<text x="450" y="400" id="the-text" fill="#000000">0</text>
			<text x="400" y="400" id="the-text" fill="#000000">1</text>
			<text x="350" y="400" id="the-text" fill="#000000">1</text>
			<text x="300" y="400" id="the-text" fill="#000000">0</text>
			<text x="250" y="400" id="the-text" fill="#000000">0</text>
			<text x="200" y="400" id="the-text" fill="#000000">0</text>
			
			<text x="700" y="450" id="the-text" fill="#000000">1</text>
			<text x="650" y="450" id="the-text" fill="#000000">1</text>
			<text x="600" y="450" id="the-text" fill="#000000">0</text>
			<text x="550" y="450" id="the-text" fill="#000000">1</text>
            <text x="500" y="450" id="the-text" fill="#000000">1</text>
			<text x="450" y="450" id="the-text" fill="#000000">0</text>
			<text x="400" y="450" id="the-text" fill="#000000">1</text>
			<text x="350" y="450" id="the-text" fill="#000000">0</text>
			<text x="300" y="450" id="the-text" fill="#000000">0</text>
			<text x="250" y="450" id="the-text" fill="#000000">1</text>
			<text x="200" y="450" id="the-text" fill="#000000">0</text>
			
			<text x="700" y="500" id="the-text" fill="#000000">1</text>
			<text x="650" y="500" id="the-text" fill="#000000">0</text>
			<text x="600" y="500" id="the-text" fill="#000000">0</text>
			<text x="550" y="500" id="the-text" fill="#000000">0</text>
            <text x="500" y="500" id="the-text" fill="#000000">1</text>
			<text x="450" y="500" id="the-text" fill="#000000">1</text>
			<text x="400" y="500" id="the-text" fill="#000000">0</text>
			<text x="350" y="500" id="the-text" fill="#000000">0</text>
			<text x="300" y="500" id="the-text" fill="#000000">0</text>
			<text x="250" y="500" id="the-text" fill="#000000">1</text>
			<text x="200" y="500" id="the-text" fill="#000000">1</text>
			
			<text x="700" y="550" id="the-text" fill="#000000">1</text>
			<text x="650" y="550" id="the-text" fill="#000000">0</text>
			<text x="600" y="550" id="the-text" fill="#000000">0</text>
			<text x="550" y="550" id="the-text" fill="#000000">0</text>
            <text x="500" y="550" id="the-text" fill="#000000">1</text>
			<text x="450" y="550" id="the-text" fill="#000000">0</text>
			<text x="400" y="550" id="the-text" fill="#000000">1</text>
			<text x="350" y="550" id="the-text" fill="#000000">0</text>
			<text x="300" y="550" id="the-text" fill="#000000">0</text>
			<text x="250" y="550" id="the-text" fill="#000000">1</text>
			<text x="200" y="550" id="the-text" fill="#000000">1</text>
			
			<text x="700" y="600" id="the-text" fill="#000000">1</text>
			<text x="650" y="600" id="the-text" fill="#000000">0</text>
			<text x="600" y="600" id="the-text" fill="#000000">1</text>
			<text x="550" y="600" id="the-text" fill="#000000">0</text>
            <text x="500" y="600" id="the-text" fill="#000000">1</text>
			<text x="450" y="600" id="the-text" fill="#000000">1</text>
			<text x="400" y="600" id="the-text" fill="#000000">1</text>
			<text x="350" y="600" id="the-text" fill="#000000">1</text>
			<text x="300" y="600" id="the-text" fill="#000000">0</text>
			<text x="250" y="600" id="the-text" fill="#000000">1</text>
			<text x="200" y="600" id="the-text" fill="#000000">0</text>
			
			<text x="700" y="650" id="the-text" fill="#000000">1</text>
			<text x="650" y="650" id="the-text" fill="#000000">0</text>
			<text x="600" y="650" id="the-text" fill="#000000">0</text>
			<text x="550" y="650" id="the-text" fill="#000000">0</text>
            <text x="500" y="650" id="the-text" fill="#000000">1</text>
			<text x="450" y="650" id="the-text" fill="#000000">1</text>
			<text x="400" y="650" id="the-text" fill="#000000">1</text>
			<text x="350" y="650" id="the-text" fill="#000000">0</text>
			<text x="300" y="650" id="the-text" fill="#000000">1</text>
			<text x="250" y="650" id="the-text" fill="#000000">0</text>
			<text x="200" y="650" id="the-text" fill="#000000">0</text>
			
			<text x="700" y="700" id="the-text" fill="#000000">1</text>
			<text x="650" y="700" id="the-text" fill="#000000">0</text>
			<text x="600" y="700" id="the-text" fill="#000000">0</text>
			<text x="550" y="700" id="the-text" fill="#000000">0</text>
            <text x="500" y="700" id="the-text" fill="#000000">1</text>
			<text x="450" y="700" id="the-text" fill="#000000">0</text>
			<text x="400" y="700" id="the-text" fill="#000000">1</text>
			<text x="350" y="700" id="the-text" fill="#000000">0</text>
			<text x="300" y="700" id="the-text" fill="#000000">1</text>
			<text x="250" y="700" id="the-text" fill="#000000">1</text>
			<text x="200" y="700" id="the-text" fill="#000000">0</text>
			
			<text x="700" y="750" id="the-text" fill="#000000">1</text>
			<text x="650" y="750" id="the-text" fill="#000000">0</text>
			<text x="600" y="750" id="the-text" fill="#000000">1</text>
			<text x="550" y="750" id="the-text" fill="#000000">0</text>
            <text x="500" y="750" id="the-text" fill="#000000">1</text>
			<text x="450" y="750" id="the-text" fill="#000000">0</text>
			<text x="400" y="750" id="the-text" fill="#000000">1</text>
			<text x="350" y="750" id="the-text" fill="#000000">0</text>
			<text x="300" y="750" id="the-text" fill="#000000">0</text>
			<text x="250" y="750" id="the-text" fill="#000000">1</text>
			<text x="200" y="750" id="the-text" fill="#000000">1</text>
			
			
			</g>
		</mask>
	</defs>
	<path mask="url(#maskOval)" fill="#5bab50" d="M226.328419,494.722069 C372.088573,431.216685 469.284839,389.350049 517.917216,369.122161 C656.772535,311.36743 685.625481,301.334815 704.431427,301.003532 C708.567621,300.93067 717.815839,301.955743 723.806446,306.816707 C728.864797,310.92121 730.256552,316.46581 730.922551,320.357329 C731.588551,324.248848 732.417879,333.113828 731.758626,340.040666 C724.234007,419.102486 691.675104,610.964674 675.110982,699.515267 C668.10208,736.984342 654.301336,749.547532 640.940618,750.777006 C611.904684,753.448938 589.856115,731.588035 561.733393,713.153237 C517.726886,684.306416 492.866009,666.349181 450.150074,638.200013 C400.78442,605.66878 432.786119,587.789048 460.919462,558.568563 C468.282091,550.921423 596.21508,434.556479 598.691227,424.000355 C599.00091,422.680135 599.288312,417.758981 596.36474,415.160431 C593.441168,412.561881 589.126229,413.450484 586.012448,414.157198 C581.598758,415.158943 511.297793,461.625274 375.109553,553.556189 C355.154858,567.258623 337.080515,573.934908 320.886524,573.585046 C303.033948,573.199351 268.692754,563.490928 243.163606,555.192408 C211.851067,545.013936 186.964484,539.632504 189.131547,522.346309 C190.260287,513.342589 202.659244,504.134509 226.328419,494.722069 Z"></path>
</svg>